<?xml version="1.0" encoding="iso-8859-1"?>
<!-- Generator: Adobe Illustrator 19.0.0, SVG Export Plug-In . SVG Version: 6.00 Build 0)  -->
<svg version="1.1" id="Capa_1" xmlns="http://www.w3.org/2000/svg" xmlns:xlink="http://www.w3.org/1999/xlink" x="0px" y="0px"
	 viewBox="0 0 496 496" style="enable-background:new 0 0 496 496;" xml:space="preserve">
<path style="fill:#656A73;" d="M8,176v32h24l5.6,36.8C43.2,288,80.8,320,124,320h9.6c39.2,0,73.6-26.4,84.8-64l13.6-48h32l13.6,48
	c10.4,37.6,45.6,64,84.8,64h9.6c44,0,80.8-32,87.2-75.2L464,208h24v-32H8z"/>
<path d="M372,328h-9.6c-43.2,0-80.8-28.8-92-69.6L257.6,216h-20l-12,42.4c-12,40.8-49.6,69.6-92,69.6H124c-48,0-88-35.2-95.2-82.4
	l-4-29.6H8c-4.8,0-8-3.2-8-8v-32c0-4.8,3.2-8,8-8h480c4.8,0,8,3.2,8,8v32c0,4.8-3.2,8-8,8h-16.8l-4,29.6
	C460,292.8,419.2,328,372,328z M232,200h32c3.2,0,6.4,2.4,8,5.6l13.6,48c9.6,34.4,41.6,57.6,76.8,58.4h9.6c40,0,73.6-29.6,79.2-68.8
	l5.6-36.8c0.8-4,4-7.2,8-7.2h16v-16H16v16h16c4,0,7.2,3.2,8,7.2l5.6,36.8c5.6,39.2,39.2,68.8,79.2,68.8h9.6c36,0,67.2-24,76.8-58.4
	l13.6-48C225.6,202.4,228.8,200,232,200z"/>
<rect x="407.71" y="159.322" transform="matrix(-0.7071 0.7071 -0.7071 -0.7071 862.1992 74.3078)" width="16" height="112.799"/>
<rect x="375.999" y="152.842" transform="matrix(-0.7071 0.7071 -0.7071 -0.7071 819.6052 124.59)" width="16" height="158.398"/>
<rect x="167.734" y="159.322" transform="matrix(-0.7071 0.7071 -0.7071 -0.7071 452.5345 243.9964)" width="16" height="112.799"/>
<rect x="135.999" y="152.786" transform="matrix(-0.7071 0.7071 -0.7071 -0.7071 409.86 294.2)" width="16" height="158.398"/>
<g>
</g>
<g>
</g>
<g>
</g>
<g>
</g>
<g>
</g>
<g>
</g>
<g>
</g>
<g>
</g>
<g>
</g>
<g>
</g>
<g>
</g>
<g>
</g>
<g>
</g>
<g>
</g>
<g>
</g>
</svg>
